# xmcd
# Track frame offsets:
# 150
# 18545
# 38832
# 72877
# 109020
# 136642
# 169530
# 201592
# 235572
# 267092
# 304662
#
# Disc length: 4423 seconds
# Revision: 0
# Processed by: cddbd v1.5.1PL0 Copyright (c) Steve Scherf et al.
# Submitted via: VisiTrax 2.9.10.220 - For more info visit www.synapsa.com
#
DISCID=8a11450b
DTITLE=Comet Records All-Stars - Live at the Torrita Blues Festival 2002 - CD
DTITLE=2
DYEAR=2002
DGENRE=Blues
TTITLE0=Vic Vergeat Band - My Babe's Good To Me
TTITLE1=Vic Vergeat Band - Big Money 2
TTITLE2=Vic Vergeat Band - Like A Rolling Stone
TTITLE3=Vic Vergeat Band - It Took Just One Minute
TTITLE4=Vic Vergeat Band - The Same Thing
TTITLE5=Vic Vergeat Band - Red House
TTITLE6=Jam Session - Rock Me Baby
TTITLE7=Jam Session - Crossroads
TTITLE8=Jam Session - Spoonful
TTITLE9=Jam Session - Rambling On My Mind
TTITLE10=Jam Session - Mike Shuffle
EXTD=2002 - Columbia No1
EXTT0=
EXTT1=
EXTT2=
EXTT3=
EXTT4=
EXTT5=
EXTT6=
EXTT7=
EXTT8=
EXTT9=
EXTT10=
PLAYORDER=
